<mxfile host="app.diagrams.net" modified="2023-04-13T07:25:19.273Z" agent="Mozilla/5.0 (X11; Linux x86_64) AppleWebKit/537.36 (KHTML, like Gecko) Chrome/111.0.0.0 Safari/537.36" version="21.1.5" etag="hVX7VLIvXTO2psq6rBEL" type="github">
  <diagram name="Page-1" id="mwQ24Pyzsr8X4oeEUKY2">
    <mxGraphModel>
      <root>
        <mxCell id="0" />
        <mxCell id="1" parent="0" />
      </root>
    </mxGraphModel>
  </diagram>
</mxfile>
